<?xml version="1.0" encoding="UTF-8" standalone="no"?>
<!-- Created with Inkscape (http://www.inkscape.org/) -->

<svg
   width="152.51831mm"
   height="169.86787mm"
   viewBox="0 0 152.51831 169.86787"
   version="1.1"
   id="svg1"
   inkscape:version="1.3.2 (091e20e, 2023-11-25, custom)"
   sodipodi:docname="logo-black.svg"
   xmlns:inkscape="http://www.inkscape.org/namespaces/inkscape"
   xmlns:sodipodi="http://sodipodi.sourceforge.net/DTD/sodipodi-0.dtd"
   xmlns="http://www.w3.org/2000/svg"
   xmlns:svg="http://www.w3.org/2000/svg">
  <sodipodi:namedview
     id="namedview1"
     pagecolor="#ffffff"
     bordercolor="#000000"
     borderopacity="0.25"
     inkscape:showpageshadow="2"
     inkscape:pageopacity="0.0"
     inkscape:pagecheckerboard="0"
     inkscape:deskcolor="#d1d1d1"
     inkscape:document-units="mm"
     inkscape:zoom="0.69219276"
     inkscape:cx="283.88046"
     inkscape:cy="454.35321"
     inkscape:window-width="1920"
     inkscape:window-height="991"
     inkscape:window-x="-9"
     inkscape:window-y="-9"
     inkscape:window-maximized="1"
     inkscape:current-layer="layer1" />
  <defs
     id="defs1" />
  <g
     inkscape:label="Шар 1"
     inkscape:groupmode="layer"
     id="layer1"
     transform="translate(-29.89792,-28.310418)">
    <path
       style="fill:#000000;stroke-width:0.264583"
       d="m 105.81374,197.91832 c 0,-0.92088 -3.405,-4.95854 -4.51733,-5.35665 -0.29228,-0.10461 -0.22279,-0.30715 0.30795,-0.89752 0.60082,-0.66834 1.82813,-2.97561 1.82813,-3.43678 0,-0.0916 -0.38695,0.12275 -0.8599,0.47636 -1.46473,1.09518 -2.42617,1.35139 -4.557761,1.21459 -2.253814,-0.14463 -3.451662,-0.83303 -4.202396,-2.41509 -0.793078,-1.67128 -0.418375,-4.00944 0.767004,-4.78613 0.72186,-0.47298 2.293056,-0.54534 3.049613,-0.14044 0.610291,0.32661 0.667412,1.19576 0.114898,1.74828 -0.601969,0.60196 -0.479448,1.09653 0.382006,1.54201 1.393981,0.72086 2.860146,-0.32186 3.114026,-2.21465 0.1893,-1.41141 -0.89128,-3.66911 -2.28411,-4.77225 -2.404573,-1.90446 -6.170279,-2.63311 -8.620255,-1.66799 -2.491047,0.9813 -3.592367,3.59482 -2.269069,5.38467 l 0.61373,0.83012 -1.68969,-0.10759 c -1.397595,-0.089 -1.83619,-0.23813 -2.537148,-0.86268 -2.435373,-2.16993 -1.570114,-6.42219 1.643494,-8.07686 1.067845,-0.54983 1.807739,-0.70059 3.966329,-0.80821 l 2.653604,-0.13229 -2.361446,-0.75845 c -5.231894,-1.6804 -11.24567,-1.98217 -14.126673,-0.70888 -2.45918,1.08685 -3.423248,3.3815 -2.045348,4.86828 l 0.648825,0.70009 h -1.054198 c -2.299121,0 -4.324303,-1.58063 -4.629068,-3.61295 -0.377973,-2.52052 0.462616,-4.15392 2.762938,-5.36882 1.032253,-0.54518 1.727128,-0.6716 4.400804,-0.80061 3.13767,-0.15141 3.161001,-0.15723 1.984375,-0.49489 -5.261682,-1.50997 -12.471599,-2.63285 -14.653993,-2.28225 -3.115789,0.50056 -5.148233,2.18852 -4.875191,4.04888 0.150685,1.02668 -0.0154,1.04672 -0.912487,0.11012 -2.761705,-2.88328 -1.527305,-7.37244 2.346351,-8.53301 0.632058,-0.18937 2.145842,-0.2799 3.756432,-0.22464 1.483755,0.0509 2.697621,0.0689 2.69748,0.0399 -1.42e-4,-0.029 -0.768252,-0.41916 -1.706909,-0.86714 -2.623912,-1.25228 -5.665356,-3.65894 -9.921994,-7.85117 -2.136052,-2.10373 -4.408704,-4.17251 -5.050334,-4.59729 -2.100446,-1.39055 -4.846011,-1.29163 -5.525217,0.19906 -0.425905,0.93476 -0.804889,0.37694 -0.810504,-1.19297 -0.0114,-3.19131 2.588586,-5.21635 6.093748,-4.74621 2.174267,0.29163 4.722691,2.04379 6.506049,4.47321 0.524275,0.7142 1.002874,1.2489 1.063554,1.18822 0.06068,-0.0607 -0.118542,-0.69135 -0.39827,-1.40149 -0.279728,-0.71015 -0.827775,-2.60086 -1.217879,-4.20159 -0.958046,-3.93117 -1.401528,-5.20942 -2.616174,-7.54062 -2.23897,-4.29714 -4.896456,-6.61459 -7.585128,-6.61459 -1.811964,0 -2.801017,0.4252 -3.193576,1.37291 -0.303377,0.73242 -0.366848,0.76621 -0.667311,0.3553 -0.526029,-0.71938 -0.709316,-2.42082 -0.37116,-3.44544 0.1724,-0.52237 0.727564,-1.25402 1.258927,-1.65913 0.858673,-0.65465 1.157025,-0.72359 3.08737,-0.71343 1.185085,0.006 2.401996,0.15769 2.732154,0.34004 0.989247,0.54635 0.669125,0.12179 -0.530487,-0.70356 -2.861927,-1.96906 -4.777254,-2.56768 -7.568721,-2.36556 -3.36718,0.2438 -5.59298,1.89821 -5.59298,4.15719 0,0.61865 0.2021,1.46696 0.449112,1.88511 0.61191,1.03588 0.336256,1.18261 -0.969875,0.51627 -2.374704,-1.21148 -3.52017,-3.01593 -3.529836,-5.56053 -0.01955,-5.1463 3.958844,-8.20208 10.678449,-8.20208 4.957214,0 8.318492,1.42273 11.959129,5.06195 1.127787,1.12735 2.050521,1.93913 2.050521,1.80396 0,-0.37303 -1.347354,-3.65928 -1.996713,-4.87007 -1.255016,-2.34009 -1.759616,-3.1376 -3.066475,-4.84649 -1.997769,-2.61235 -4.00086,-4.42786 -5.93702,-5.38103 -2.958814,-1.45661 -5.474012,-1.31107 -6.28513,0.3637 l -0.395787,0.81722 -0.419854,-1.00485 c -0.852265,-2.03975 -0.312997,-4.27335 1.284438,-5.320026 0.369171,-0.24189 1.297591,-0.519301 2.063152,-0.616469 l 1.391931,-0.176665 -1.266243,-0.751517 c -1.942346,-1.152787 -4.300506,-1.806615 -6.079501,-1.685616 -1.782431,0.121238 -2.695141,0.692307 -3.459022,2.164271 l -0.522327,1.006499 -0.346348,-0.624623 c -0.457083,-0.824328 -0.46179,-4.247989 -0.0073,-5.329476 0.489464,-1.164772 1.91588,-2.525879 3.34639,-3.193179 1.692518,-0.78952 5.340479,-0.754579 7.475386,0.0716 3.548793,1.37333 8.917789,6.527382 12.355703,11.861051 0.492342,0.76383 0.943099,1.34084 1.001686,1.28226 0.05859,-0.0586 -0.214283,-0.90841 -0.60638,-1.8885 -0.758068,-1.89487 -3.040092,-5.710071 -4.928042,-8.238953 C 48.252139,92.909373 47.678191,92.099412 47.605431,91.95164 47.532671,91.803865 46.974,90.849521 46.363945,89.830875 44.93496,87.444823 43.965855,84.508612 43.543654,81.285921 43.006822,77.188252 41.998,75.790448 39.604018,75.827236 l -1.254535,0.01929 0.620911,-0.81303 c 0.840671,-1.100783 1.894806,-1.578838 3.475662,-1.576221 2.412466,0.004 3.912262,1.358942 4.777155,4.315801 0.792684,2.71 0.874938,2.646932 0.89348,-0.685062 0.02138,-3.840159 0.527693,-6.732939 1.567315,-8.95456 1.917028,-4.096594 4.997156,-6.216119 9.033356,-6.216119 3.535849,0 5.83139,1.994501 5.812605,5.05033 -0.0087,1.409832 -0.01611,1.423223 -0.481306,0.866444 -0.832999,-0.996981 -2.634081,-1.751277 -3.711573,-1.554414 -3.231745,0.590453 -6.413383,4.546555 -7.740507,9.624666 -0.591084,2.26173 -1.004702,8.237974 -0.570153,8.237974 0.146037,0 0.342802,-0.831519 0.437258,-1.847821 0.202978,-2.183987 1.13021,-4.443968 2.153539,-5.24892 0.542481,-0.426715 1.095105,-0.576175 2.130378,-0.576175 1.488691,0 2.234917,0.181586 2.234917,0.543843 0,0.122454 -0.314235,0.556199 -0.698299,0.963879 -1.162553,1.234036 -1.643827,2.693792 -1.961817,5.950384 -0.510593,5.229074 -0.03148,9.926508 2.288749,22.439815 2.57915,13.90973 3.147216,20.56692 2.483482,29.10417 -0.440809,5.6699 -0.407175,10.25679 0.08749,11.9316 0.40186,1.3606 2.683283,5.24703 3.306069,5.63193 0.146352,0.0904 -0.09102,-0.52036 -0.527484,-1.35735 -1.972241,-3.78208 -2.80549,-7.75318 -2.084945,-9.93644 0.899215,-2.72465 4.195683,-3.10666 6.688492,-0.77509 0.651986,0.60981 0.791006,1.34805 0.183107,0.97235 -0.139015,-0.0859 -0.609748,-0.0778 -1.046072,0.018 -1.231652,0.27051 -1.950408,1.89251 -1.752293,3.95434 0.511865,5.32714 5.171527,12.47185 10.609706,16.26798 l 1.304314,0.91047 -1.515311,-1.83652 c -2.15937,-2.61709 -2.914203,-4.26315 -2.748026,-5.99259 0.185066,-1.92601 0.98574,-2.59079 3.120427,-2.59079 h 1.568501 l -0.571532,1.09651 c -0.514636,0.98735 -0.541936,1.23761 -0.274228,2.51392 0.58547,2.79124 4.137375,6.97148 8.130294,9.56854 1.164167,0.75719 2.235729,1.46961 2.38125,1.58316 0.284337,0.22186 4.511527,2.53503 5.820833,3.18522 4.558131,2.26355 7.801353,4.65531 9.682943,7.14084 1.10933,1.46538 2.08719,3.64277 2.09249,4.65931 8e-4,0.15549 0.13674,0.75896 0.30206,1.34104 l 0.30058,1.05834 0.3793,-1.85209 c 1.12503,-5.4934 4.4531,-8.80062 13.30409,-13.22073 7.15912,-3.57521 11.97313,-7.45229 14.02203,-11.29297 1.11989,-2.09924 1.29075,-3.62421 0.54182,-4.836 l -0.5841,-0.94509 h 1.59706 c 1.35666,0 1.69801,0.10097 2.26783,0.67079 0.90229,0.90228 1.08496,1.80278 0.68349,3.36925 -0.44614,1.74074 -1.20668,3.03087 -2.83427,4.80787 -0.74095,0.80896 -1.25333,1.47084 -1.13863,1.47084 0.35383,0 4.30914,-3.2965 5.28852,-4.40765 2.07321,-2.35214 2.42374,-2.79469 3.06256,-3.86649 2.09704,-3.51835 3.53329,-7.49007 3.54743,-9.80983 0.0105,-1.72899 -1.21287,-3.08269 -2.78598,-3.08269 -0.79386,0 -0.80104,-0.0857 -0.0769,-0.91855 1.33361,-1.53379 4.46871,-1.87283 5.89007,-0.63697 0.929,0.80775 1.29797,2.77901 0.96268,5.14311 -0.31643,2.2311 -0.77856,3.59397 -1.99633,5.88731 -0.50673,0.95429 -0.8729,1.7835 -0.81371,1.84269 0.1905,0.1905 1.96319,-2.40142 2.8546,-4.17384 l 0.86495,-1.7198 v -4.6302 c 0,-2.54662 -0.10546,-7.30912 -0.23435,-10.58334 -0.32926,-8.3641 0.0461,-12.06178 2.61892,-25.79687 1.88387,-10.057248 2.20944,-12.332106 2.41235,-16.855732 0.27932,-6.226905 -0.45081,-9.87511 -2.32712,-11.627845 -0.98042,-0.915847 -0.82232,-1.131774 1.03232,-1.409896 0.92797,-0.139157 1.41664,-0.04954 2.39683,0.439545 1.07635,0.537069 1.30939,0.811794 1.85278,2.184233 0.34186,0.863444 0.68961,2.381491 0.77278,3.373437 0.0832,0.99195 0.25299,1.803543 0.37741,1.803543 0.12441,0 0.22611,-1.041797 0.22599,-2.315104 -5.3e-4,-6.670934 -2.87526,-12.840374 -6.92612,-14.864617 -0.89367,-0.446569 -1.84778,-0.811945 -2.12025,-0.811945 -0.8372,0 -2.21908,0.696687 -2.95404,1.489308 l -0.69937,0.754242 v -1.369134 c 0,-1.745462 0.2795,-2.459202 1.40302,-3.582723 1.16311,-1.163108 3.60454,-1.901722 5.41585,-1.638475 1.7868,0.259686 4.26327,1.479931 5.41193,2.666643 2.24767,2.322142 2.27502,2.367942 3.26718,5.471049 0.56821,1.777161 0.71725,2.855783 0.8369,6.056855 0.0801,2.142051 0.24748,3.831666 0.37202,3.754697 0.12454,-0.07697 0.22643,-0.369787 0.22643,-0.650711 0,-0.280922 0.31507,-1.297792 0.70015,-2.259711 0.82514,-2.061168 2.09288,-3.154326 3.98757,-3.438454 1.46447,-0.219612 3.15327,0.491988 4.00442,1.687327 0.61823,0.868215 0.49532,1.234427 -0.27578,0.821746 -1.13573,-0.607825 -3.04107,0.523388 -3.74233,2.221841 -0.19252,0.466286 -0.4938,2.047486 -0.66952,3.513778 -0.50571,4.219921 -1.95874,7.5239 -5.44717,12.386045 -2.09655,2.922154 -4.0318,6.202468 -4.76905,8.083698 -0.34547,0.88155 -0.59329,1.60282 -0.55069,1.60282 0.0426,0 1.21728,-1.51805 2.61041,-3.37344 2.9044,-3.868129 3.78262,-4.825757 6.22734,-6.790426 3.27951,-2.635528 6.43368,-3.794299 9.39657,-3.452095 1.94443,0.224573 2.62904,0.461576 3.94121,1.364398 1.9218,1.322265 2.80649,3.755199 2.32083,6.382377 -0.361,1.952781 -0.6227,2.147612 -1.24382,0.926002 -0.61633,-1.212178 -2.35643,-2.200574 -3.87416,-2.200574 -1.56668,0 -3.93944,0.700775 -5.6057,1.655603 l -1.49718,0.857938 1.41064,0.161595 c 2.64577,0.303082 3.99634,1.634422 3.99634,3.939452 0,1.12504 -0.51943,2.64583 -0.90369,2.64583 -0.13098,0 -0.36779,-0.28453 -0.52624,-0.63228 -0.8194,-1.7984 -4.36238,-1.5404 -7.47338,0.54422 -1.81206,1.21422 -4.83756,4.55667 -6.17272,6.81937 -1.44452,2.44804 -1.66351,2.90153 -2.88231,5.96869 l -0.89368,2.24896 0.72081,-0.92604 c 3.8798,-4.98452 9.79652,-7.47888 15.67597,-6.60866 5.56735,0.82404 8.46849,3.51188 8.46849,7.84588 0,2.35358 -0.48066,3.6468 -1.79089,4.8184 -1.14824,1.02675 -2.97161,1.76999 -2.97161,1.21129 0,-0.18901 0.14883,-0.39326 0.33073,-0.45389 0.2164,-0.0721 0.33073,-0.66827 0.33073,-1.72447 0,-1.43156 -0.0898,-1.70875 -0.79375,-2.44958 -1.46244,-1.53909 -2.61672,-1.95797 -5.42396,-1.96828 -2.32137,-0.009 -2.64503,0.0569 -4.23333,0.85598 -1.85883,0.93517 -3.77099,2.19887 -3.59439,2.37546 0.0602,0.0602 0.36387,-0.0266 0.67479,-0.19305 0.31092,-0.1664 1.36292,-0.36337 2.33777,-0.43771 1.99185,-0.15189 3.17436,0.3032 4.13656,1.59196 0.61291,0.82093 0.70031,3.10319 0.15765,4.11715 l -0.33106,0.61859 -0.51646,-0.81569 c -0.94167,-1.48726 -3.47049,-1.75711 -5.71856,-0.61023 -1.33775,0.68246 -3.29644,2.72522 -4.40942,4.59866 -1.31462,2.21284 -2.22065,4.62592 -3.20169,8.52715 -0.47571,1.89177 -1.05418,3.96057 -1.28548,4.59733 -0.49866,1.37279 -0.51871,1.63908 -0.0801,1.06312 2.88211,-3.78425 5.5005,-5.52816 8.30024,-5.52816 3.2529,0 5.45121,2.40935 4.99205,5.47129 -0.19483,1.2992 -0.42789,1.42521 -0.92344,0.49928 -0.817,-1.52659 -3.29526,-1.54872 -5.61512,-0.0501 -0.77312,0.49942 -2.77489,2.32537 -4.44838,4.05766 -3.08355,3.1919 -7.26527,6.67675 -9.04516,7.53781 -0.53645,0.25952 -1.04383,0.58263 -1.12751,0.71803 -0.0837,0.1354 -0.5066,0.32403 -0.93983,0.41918 -1.62764,0.35749 -0.92513,0.53761 1.71557,0.43985 2.96718,-0.10983 4.1261,0.12958 5.78229,1.19454 2.42304,1.55805 2.59699,5.24851 0.36257,7.69218 -0.77159,0.84385 -1.03229,0.73946 -0.83113,-0.33279 0.14117,-0.75248 0.0461,-1.09591 -0.50224,-1.81485 -1.94555,-2.55075 -6.4224,-2.83266 -14.99373,-0.94415 -6.16509,1.35834 -6.23187,1.40279 -2.38125,1.58467 2.78298,0.13145 3.54427,0.26437 4.80208,0.83843 4.76706,2.17566 3.27463,8.92505 -1.97582,8.93544 l -0.74562,0.002 0.54718,-0.76845 c 0.94353,-1.32508 0.52386,-2.85033 -1.13173,-4.11311 -1.37324,-1.04742 -3.15025,-1.46238 -6.27614,-1.46558 -3.14501,-0.003 -4.97465,0.27138 -8.05224,1.20854 -3.13396,0.95433 -3.23392,1.13773 -0.61613,1.13044 1.91431,-0.005 2.50438,0.10359 3.74795,0.6919 2.53721,1.20029 3.73525,3.43123 3.24525,6.04315 -0.34996,1.86541 -3.23163,3.62327 -5.11427,3.11978 -0.68716,-0.18378 -0.69144,-0.19761 -0.17646,-0.57011 0.29028,-0.20998 0.68579,-0.77049 0.87892,-1.24559 0.31838,-0.78321 0.29109,-0.98051 -0.29245,-2.11445 -0.50815,-0.98743 -0.9468,-1.40718 -2.08425,-1.99445 -1.30435,-0.67345 -1.62838,-0.73145 -3.42502,-0.61305 -3.55161,0.23405 -5.87318,1.52518 -7.1323,3.96656 -0.93788,1.81852 -1.00882,2.8695 -0.27492,4.0732 0.67489,1.10692 1.72499,1.53931 2.60047,1.07077 0.89674,-0.47993 0.99371,-0.94366 0.34231,-1.63705 -0.71379,-0.75979 -0.70851,-1.09408 0.0254,-1.60813 1.23435,-0.86457 3.51852,-0.29065 4.12295,1.03594 0.79613,1.74732 0.16682,4.11911 -1.41257,5.32377 -1.7767,1.35515 -5.42,1.19213 -7.46359,-0.33397 l -0.85789,-0.64064 0.2526,0.66438 c 0.55583,1.46194 1.35486,2.78598 1.92265,3.18591 0.50808,0.35788 0.53869,0.46018 0.20198,0.67489 -0.21828,0.13919 -0.51594,0.25593 -0.66146,0.25942 -0.7262,0.0174 -4.10104,4.16 -4.10104,5.03398 0,0.1427 -0.11907,0.25945 -0.26459,0.25945 -0.14552,0 -0.26458,-0.11675 -0.26458,-0.25945 z m 50.79901,-69.45826 c 1.31302,-2.72957 3.99634,-5.92434 6.23443,-7.4227 2.58948,-1.73362 7.05064,-3.23567 8.83308,-2.97407 1.13862,0.16712 1.00774,-0.23865 -0.18371,-0.56953 -3.7019,-1.02807 -8.69928,0.65567 -11.86878,3.99888 -2.17602,2.29529 -3.91131,5.5841 -4.57211,8.66527 -0.47695,2.22394 -0.34164,2.68122 0.31964,1.08027 0.3306,-0.80036 0.88745,-2.05052 1.23745,-2.77812 z m -99.309935,2.63921 c -0.769628,-5.61505 -4.774655,-10.87872 -9.961991,-13.09271 -1.898031,-0.81009 -5.75438,-1.04069 -7.14375,-0.42717 l -0.926042,0.40891 0.871051,0.0104 c 3.203234,0.0381 7.514442,1.69896 10.292752,3.96525 2.565104,2.09236 5.669579,6.70249 6.557129,9.73729 0.297034,1.01566 0.483166,0.65523 0.310851,-0.60193 z m 0.738579,-14.10552 c -0.493302,-2.54304 -2.564551,-8.06922 -3.288668,-8.77432 -0.07472,-0.0728 -0.361074,-0.54901 -0.636333,-1.05833 -1.422236,-2.63162 -4.459396,-6.03302 -6.460913,-7.23576 -2.563331,-1.540338 -2.940167,-1.429459 -0.953548,0.28057 2.354736,2.0269 3.706916,3.5799 5.456962,6.26741 2.181736,3.35045 5.176758,10.44477 5.945783,14.08379 l 0.216355,1.02378 0.08249,-1.14756 c 0.04537,-0.63116 -0.117589,-2.17897 -0.362125,-3.43958 z m 98.680896,-4.25287 c 0.68146,-1.66054 1.45277,-3.32742 1.71404,-3.70416 0.26126,-0.37675 0.67218,-1.08973 0.91315,-1.58441 0.79108,-1.62396 2.11941,-3.28165 4.83985,-6.03986 1.47444,-1.494907 2.62003,-2.718018 2.54575,-2.718018 -0.0743,0 -0.80439,0.379103 -1.62247,0.842455 -2.18242,1.236093 -5.15489,4.425183 -6.98304,7.491923 -2.43357,4.08235 -4.43665,10.15754 -4.40547,13.36146 0.0105,1.07811 0.0942,0.9156 0.88538,-1.7198 0.48058,-1.60073 1.43135,-4.26904 2.11281,-5.92959 z m -51.43772,58.62753 c -2.99932,-1.57689 -6.238253,-3.36359 -7.672913,-4.23263 C 86.873579,160.6312 76.11641,149.6135 70.70019,139.57256 c -4.168272,-7.72742 -6.118111,-13.17262 -7.863681,-21.96042 -2.100844,-10.57637 -2.524903,-15.87272 -2.528485,-31.579869 -0.0024,-10.043459 0.04635,-11.452744 0.39075,-11.320587 2.528464,0.970261 13.930267,1.403315 19.582675,0.743773 8.220874,-0.959245 16.414612,-3.234386 22.971551,-6.378475 l 2.86322,-1.372931 3.06728,1.491629 c 9.88433,4.806791 24.06757,7.448957 34.9291,6.506868 2.1462,-0.186152 4.71364,-0.506476 5.70542,-0.711829 0.99177,-0.205354 1.85498,-0.37337 1.91823,-0.37337 0.0632,0 0.1142,5.089922 0.11324,11.310938 -0.002,14.143163 -0.35152,19.183033 -2.02195,29.170313 -0.79419,4.74834 -3.50595,14.63361 -4.54434,16.56559 -0.14782,0.27502 -0.6631,1.393 -1.14508,2.48441 -2.90094,6.56898 -5.80871,11.08901 -11.04686,17.17199 -1.85981,2.15977 -2.56753,2.8782 -6.65129,6.752 -4.35895,4.13483 -10.80003,8.52922 -18.74249,12.78695 -1.86931,1.00208 -1.58774,0.9427 -2.41291,0.50887 z m 4.36563,-5.94687 c 2.72565,-1.5173 4.32094,-2.52083 6.61458,-4.16095 0.72761,-0.52029 1.62057,-1.14602 1.98438,-1.39051 2.14902,-1.44425 6.95234,-5.6719 9.5339,-8.39127 8.75859,-9.22619 14.0962,-19.07341 17.28152,-31.88229 2.19782,-8.83793 3.08249,-17.77893 3.08249,-31.153538 v -9.359643 l -2.57968,0.214399 c -4.31476,0.358606 -12.2291,0.155626 -16.7349,-0.429204 -4.29419,-0.557363 -11.35537,-2.178301 -14.2875,-3.279783 -0.94589,-0.35533 -2.55323,-0.958969 -3.57188,-1.341416 -1.01864,-0.382447 -2.53859,-1.014233 -3.37766,-1.403967 l -1.52558,-0.708607 -1.21855,0.592016 c -5.067442,2.461956 -14.949997,5.236393 -21.924038,6.154976 -4.500536,0.592785 -14.393577,0.826595 -17.372277,0.410572 l -1.49728,-0.209119 -0.193082,2.060485 c -0.286232,3.05452 0.05638,17.346705 0.52665,21.969119 1.176322,11.5625 2.775448,18.91213 5.734953,26.35803 1.371383,3.4503 3.769037,8.22768 5.401788,10.76318 1.736622,2.69679 5.401824,7.5677 6.887001,9.15255 0.669256,0.71417 1.601219,1.71521 2.071029,2.22453 2.642783,2.86504 7.717253,7.13517 11.670384,9.82055 5.673372,3.85393 9.356202,5.85304 10.318752,5.60121 0.29104,-0.0762 1.71979,-0.80124 3.175,-1.61132 z M 93.510615,136.75327 c -0.436562,-0.29241 -1.448594,-0.82111 -2.248958,-1.17489 -0.800365,-0.35378 -1.653969,-0.75569 -1.896899,-0.89314 -1.004927,-0.56857 -4.962837,-1.37831 -6.710441,-1.37288 -3.021457,0.009 -6.012,1.03989 -6.99534,2.41051 -1.100595,1.53405 -1.483548,-0.5481 -0.472972,-2.57159 0.758076,-1.5179 2.017974,-2.58412 4.546105,-3.84725 2.759943,-1.37896 5.958263,-2.29918 7.991033,-2.29918 1.406364,0 1.839436,-0.12117 2.835299,-0.79327 0.646467,-0.43629 1.247748,-0.98181 1.33618,-1.21226 0.08843,-0.23045 0.160785,-6.64635 0.160785,-14.25756 V 96.903208 l 0.727604,-0.461555 c 0.906862,-0.575267 2.182812,-1.74993 2.182812,-2.009536 0,-0.387681 -1.875377,-0.799958 -3.857275,-0.847974 l -2.026158,-0.04909 -0.828596,1.57016 -0.828595,1.570156 -0.144254,12.452761 c -0.10641,9.18604 -0.234804,12.73039 -0.489439,13.51109 -0.614233,1.88322 -4.256323,4.75489 -7.408971,5.84174 -1.068197,0.36826 -1.306637,0.29982 -0.854303,-0.24521 0.168609,-0.20316 0.602295,-1.21584 0.963745,-2.25038 0.625568,-1.79052 0.65718,-2.17092 0.65718,-7.90794 v -6.02695 L 79.456983,111.304 c -0.615111,-0.66337 -0.843409,-0.73671 -2.050521,-0.65875 -1.193538,0.0771 -1.367591,0.0232 -1.434539,-0.44383 -0.100928,-0.70411 1.7623,-2.63363 2.962077,-3.06748 l 0.92184,-0.33334 0.0079,-2.89806 c 0.0075,-2.75191 0.05243,-2.98634 0.89121,-4.6484 0.795393,-1.576086 1.171173,-1.967018 3.774741,-3.926972 2.66741,-2.008013 3.417872,-2.722645 2.851428,-2.715289 -0.476874,0.0062 -2.682049,0.768312 -4.189235,1.447818 -2.091608,0.942988 -5.424117,1.217718 -6.709325,0.553111 -1.713791,-0.886235 -3.653184,-5.175263 -3.310149,-7.320491 0.09088,-0.568317 0.232796,-1.033301 0.315375,-1.033301 0.08258,0 0.467243,0.303802 0.854813,0.675116 1.064829,1.020172 4.281353,2.236192 5.900137,2.230575 0.748908,-0.0026 2.671336,-0.365321 4.272066,-0.806045 6.071131,-1.671553 9.611444,-1.962722 12.964583,-1.066252 2.770186,0.740611 3.750636,1.238736 6.198386,3.149129 1.76309,1.376029 2.39978,1.728692 3.04271,1.685364 l 0.81307,-0.0548 -0.0699,17.519487 -0.0699,17.51948 -0.59154,0.63961 c -0.32535,0.35179 -1.36545,1.15584 -2.31133,1.78678 -0.94589,0.63094 -2.01745,1.42701 -2.38125,1.76905 -0.36381,0.34203 -1.97358,1.64183 -3.57728,2.88845 -1.603698,1.24661 -3.076792,2.46053 -3.273544,2.6976 -0.453168,0.54604 -0.761649,0.52146 -1.748142,-0.13929 z m 5.218753,-6.77186 c 1.284712,-1.46523 1.263539,-1.18031 1.263539,-17.00373 0,-10.76206 -0.08452,-15.006214 -0.307166,-15.425121 -0.698471,-1.31414 -3.397001,-3.115661 -3.397001,-2.267815 0,0.121605 -0.327422,0.391541 -0.727604,0.599861 -0.400182,0.20832 -1.084792,0.687144 -1.521354,1.064059 l -0.79375,0.685297 -0.0772,13.882159 -0.0772,13.88217 -1.057407,1.03651 -1.057407,1.03652 1.002313,0.18732 c 0.551275,0.10302 1.121378,0.28511 1.266899,0.40464 0.145521,0.11953 0.800364,0.42786 1.455208,0.68519 0.654844,0.25732 1.607344,0.73718 2.116667,1.06635 1.135708,0.73398 1.394219,0.75651 1.911461,0.16659 z m 24.943742,6.80211 c -1.99242,-1.25858 -6.04665,-2.75228 -8.91934,-3.28615 -3.39614,-0.63115 -6.00534,-0.0354 -7.97314,1.82046 -1.44976,1.3673 -1.80031,1.27937 -1.37203,-0.34416 0.8915,-3.3795 4.02361,-7.23818 6.6829,-8.23315 1.71287,-0.64086 4.75525,-0.70006 7.0837,-0.13784 2.77318,0.66961 2.51354,1.3108 2.51354,-6.20737 v -6.60955 l -0.7276,-0.17026 c -1.91281,-0.4476 -5.2616,-1.47703 -6.30212,-1.9373 -3.69682,-1.63528 -5.4057,-4.90097 -5.4057,-10.33037 0,-4.678048 1.15591,-7.606792 4.08979,-10.36239 1.41068,-1.324954 4.76636,-3.668091 5.25319,-3.668091 0.12697,0 0.5153,-0.22375 0.86297,-0.497221 0.48377,-0.380542 0.92819,-0.46855 1.89381,-0.375039 1.4917,0.144458 6.69113,1.419614 8.90989,2.185146 2.70175,0.932172 5.28722,0.627555 6.63771,-0.782044 1.46065,-1.524593 1.98881,-0.604491 0.80731,1.406419 -0.79751,1.357381 -4.21934,4.902007 -5.49069,5.687748 -1.2255,0.757398 -3.83223,0.783743 -5.96344,0.06027 -2.92361,-0.99246 -6.82462,-2.066534 -8.17117,-2.249787 l -1.35708,-0.184687 -0.59113,1.938658 c -0.91139,2.989032 -0.44852,6.094948 1.12853,7.572418 0.69878,0.65466 3.04378,1.64229 3.8994,1.64229 0.49797,0 0.52633,-0.18248 0.52633,-3.38667 0,-3.376981 0.15693,-4.02167 0.97896,-4.02167 0.26682,0 0.34396,0.883582 0.34396,3.94007 v 3.94007 l 0.7276,0.17256 c 3.14548,0.74598 8.48404,2.71501 9.86947,3.64017 3.08653,2.06111 4.47117,5.31817 4.47965,10.53745 0.006,3.43131 -0.87319,6.96511 -2.13084,8.5688 -2.10319,2.68188 -4.75348,5.19197 -8.59227,8.13775 -0.87974,0.67508 -1.75752,1.4178 -1.95063,1.65048 -0.44119,0.53161 -0.74728,0.51104 -1.74153,-0.11701 z m 5.28589,-7.60582 c 0.36476,-0.55118 1.03289,-2.00969 1.48475,-3.24114 0.72696,-1.98118 0.80856,-2.48274 0.70865,-4.35567 -0.1496,-2.80452 -0.95984,-4.44615 -2.75595,-5.5839 -1.23002,-0.77916 -3.45518,-1.57918 -4.85563,-1.74576 l -0.66146,-0.0787 -0.13229,6.61458 c -0.0728,3.63802 -0.12516,6.64155 -0.11645,6.67451 0.0272,0.10305 5.26527,2.69486 5.47051,2.70684 0.10708,0.006 0.49312,-0.43961 0.85787,-0.99079 z M 84.28679,67.664443 c -0.09394,-0.905327 -0.200136,-1.876959 -0.235989,-2.159177 -0.05003,-0.39379 0.242482,-0.632804 1.257731,-1.027721 0.727604,-0.283027 1.561042,-0.617342 1.852083,-0.742918 1.291159,-0.557099 4.971955,-1.60477 7.276042,-2.070987 4.536101,-0.917855 7.742503,-1.150492 13.493753,-0.979035 7.08325,0.21117 10.68744,0.856017 16.53645,2.958643 1.45521,0.523123 2.86314,1.019868 3.12873,1.103881 0.42259,0.133673 0.45683,0.321699 0.27424,1.505754 -0.11475,0.744154 -0.19182,1.737964 -0.17127,2.208467 l 0.0374,0.855459 -0.97307,-0.435666 c -9.47091,-4.240331 -24.36119,-5.166273 -35.104318,-2.182937 -3.081197,0.855642 -5.928905,1.874573 -7.040055,2.518984 -0.08849,0.05132 -0.237746,-0.647417 -0.331687,-1.552747 z m -1.719815,-7.00574 C 80.803681,54.877914 77.978732,49.915768 74.414313,46.338191 71.911784,43.826422 71.907942,43.76229 74.196032,42.695537 c 1.726279,-0.804823 3.71983,-0.829011 5.02163,-0.06093 0.996741,0.588092 1.596348,1.50645 2.138582,3.275452 0.318469,1.038984 0.329235,1.046239 0.588918,0.396875 0.324525,-0.811514 1.21634,-1.64093 2.418479,-2.249263 1.110515,-0.561964 3.246464,-0.38863 4.248431,0.344766 0.89848,0.657648 1.590341,2.088337 1.590841,3.28967 l 5.3e-4,0.988298 -0.859896,-0.524288 c -1.398014,-0.852386 -2.575616,-0.597577 -4.020942,0.870046 -1.684449,1.710433 0.08568,6.021538 2.768806,6.743358 1.087927,0.292677 2.901064,-0.145563 3.757523,-0.9082 0.661649,-0.589172 1.264925,-1.949792 1.264925,-2.852897 0,-0.637646 0.05134,-0.616307 1.226545,0.509733 2.347143,2.248959 5.604912,2.176518 7.612826,-0.169283 1.01924,-1.190752 1.57545,-3.083756 1.27614,-4.343267 -0.31532,-1.326949 -1.50763,-2.523834 -2.6694,-2.679661 -0.863537,-0.115826 -1.152801,-0.0114 -1.979748,0.714664 -0.532646,0.467669 -0.968446,1.016569 -0.968446,1.219774 0,0.570211 -0.351986,0.444481 -1.270971,-0.453999 -0.463243,-0.452906 -0.982279,-1.290809 -1.153414,-1.862005 -0.266793,-0.890471 -0.237855,-1.215408 0.202964,-2.27906 0.769208,-1.856018 1.891258,-2.514849 4.079425,-2.395302 1.27982,0.06992 1.9503,0.254204 2.59492,0.713214 0.47807,0.34041 0.92987,0.558268 1.00401,0.484124 0.0742,-0.07414 0.25878,-0.970079 0.4103,-1.990974 0.23358,-1.573734 0.20437,-2.070333 -0.192,-3.263665 -0.25712,-0.77412 -0.79664,-1.73664 -1.19893,-2.138931 -0.40241,-0.402288 -0.64194,-0.731435 -0.53241,-0.731435 0.50691,0 3.41512,-2.979523 3.85041,-3.944821 0.47568,-1.054889 0.93019,-1.416963 0.94339,-0.751533 0.0117,0.592283 1.80599,2.800723 3.11808,3.837863 l 1.28144,1.012923 -0.58778,0.443362 c -0.75128,0.566693 -1.70164,2.520847 -1.70164,3.498964 0,0.415078 0.13071,1.505283 0.29047,2.422678 l 0.29047,1.667992 1.22878,-0.654132 c 1.43224,-0.762437 3.59856,-0.88106 4.79464,-0.262541 1.55579,0.804526 2.38181,2.607961 1.997,4.359989 -0.15769,0.71795 -1.78313,2.656756 -2.22736,2.656756 -0.0877,0 -0.31872,-0.359916 -0.51344,-0.799812 -1.02137,-2.307444 -4.37166,-1.856774 -5.35128,0.719839 -0.59044,1.552969 -0.0136,3.555698 1.44396,5.013253 2.11436,2.114365 4.86421,2.139172 7.34013,0.06622 l 1.28997,-1.080026 v 0.903054 c 0,0.647944 0.2591,1.205762 0.91718,1.974583 1.06584,1.245187 2.35822,1.680961 3.99605,1.347406 1.80779,-0.368167 3.55343,-2.646751 3.55343,-4.638283 0,-1.028991 -0.81205,-2.466689 -1.69861,-3.007315 -1.04479,-0.637109 -1.92106,-0.629116 -2.99774,0.02735 l -0.8599,0.524288 5.3e-4,-0.988298 c 5.3e-4,-1.206783 0.6933,-2.632646 1.60266,-3.298491 0.37573,-0.275117 1.31769,-0.555636 2.11666,-0.630352 1.85248,-0.17323 3.00852,0.400127 4.1002,2.033556 l 0.80847,1.209675 0.313,-1.317678 c 0.60344,-2.540333 1.88208,-3.616388 4.28777,-3.608417 1.84102,0.0061 4.7625,1.292167 4.7625,2.096506 0,0.09306 -0.59829,0.62547 -1.32953,1.183121 -1.27718,0.973987 -4.23804,4.689872 -5.49803,6.900032 -1.39701,2.450526 -3.15851,6.690108 -3.76513,9.061979 -0.1954,0.763984 -0.45656,1.389062 -0.58037,1.389062 -0.12381,0 -0.66685,-0.224387 -1.20675,-0.498641 -2.51515,-1.277546 -9.3615,-3.000923 -14.34323,-3.610473 -3.64063,-0.445457 -10.14939,-0.496527 -13.702611,-0.107516 -5.20695,0.570064 -12.654219,2.43486 -15.358388,3.84574 -0.387543,0.202197 -0.764154,0.36752 -0.836914,0.367385 -0.07276,-1.38e-4 -0.413494,-0.922137 -0.757182,-2.048891 z"
       id="path1" />
  </g>
</svg>
